/* XPM */
static char * bitcoin16_xpm[] = {
"16 16 55 1",
" 	c None",
".	c #9C8920",
"+	c #928026",
"@	c #A38F26",
"#	c #8C7916",
"$	c #967F17",
"%	c #826D0E",
"&	c #86730F",
"*	c #978413",
"=	c #7A6A0F",
"-	c #8A7915",
";	c #877717",
">	c #8E7C15",
",	c #8B791A",
"'	c #816F13",
")	c #8B7915",
"!	c #786712",
"~	c #827115",
"{	c #94821E",
"]	c #7C6E21",
"^	c #695D16",
"/	c #716416",
"(	c #6B5E16",
"_	c #6F6216",
":	c #7D6F24",
"<	c #080C00",
"[	c #323003",
"}	c #383603",
"|	c #353505",
"1	c #3A3805",
"2	c #212301",
"3	c #373B00",
"4	c #4C4700",
"5	c #615503",
"6	c #574F00",
"7	c #504C00",
"8	c #5C5800",
"9	c #74640C",
"0	c #92801A",
"a	c #988625",
"b	c #918016",
"c	c #917E16",
"d	c #867621",
"e	c #8D7B17",
"f	c #675D00",
"g	c #675A01",
"h	c #726101",
"i	c #81700F",
"j	c #81710D",
"k	c #94831E",
"l	c #A8952D",
"m	c #B8A33E",
"n	c #B9A43B",
"o	c #A79329",
"p	c #88761A",
"                ",
"                ",
"     .   +@     ",
"    #      $    ",
"   %        &   ",
"  * =  -;    >  ",
"  ,'  )  !  ~{  ",
"  ]^  /  (  _:  ",
"  <[  }  |  12  ",
"  34   5    67  ",
"  8 90abcde  f  ",
"   g        h   ",
"    i      j    ",
"     klmnop     ",
"                ",
"                "};
