/* XPM */
static char * bitcoin32_xpm[] = {
"32 32 204 2",
"  	c None",
". 	c #AF9927",
"+ 	c #B9A32D",
"@ 	c #C3AD33",
"# 	c #C9B23B",
"$ 	c #CAB03A",
"% 	c #C6AE35",
"& 	c #BEA830",
"* 	c #BDA523",
"= 	c #BAA226",
"- 	c #A79225",
"; 	c #8D7D1E",
"> 	c #8A791E",
", 	c #A38E28",
"' 	c #BBA42E",
") 	c #C5AC30",
"! 	c #B59D28",
"~ 	c #BEA21E",
"{ 	c #BAA120",
"] 	c #9C871A",
"^ 	c #887619",
"/ 	c #B39B23",
"( 	c #BAA01F",
"_ 	c #BEA218",
": 	c #B2981A",
"< 	c #9E8616",
"[ 	c #B19717",
"} 	c #B09512",
"| 	c #A88F13",
"1 	c #8B770E",
"2 	c #A58D10",
"3 	c #A1890F",
"4 	c #89750C",
"5 	c #9D850D",
"6 	c #A9900F",
"7 	c #726008",
"8 	c #8B7915",
"9 	c #B39C25",
"0 	c #BDA52E",
"a 	c #BDA32E",
"b 	c #B49C29",
"c 	c #AE9A24",
"d 	c #AE9721",
"e 	c #B9A027",
"f 	c #B7A12D",
"g 	c #B49D29",
"h 	c #AC9825",
"i 	c #A5901D",
"j 	c #9A830E",
"k 	c #8E790C",
"l 	c #AB9311",
"m 	c #9C840F",
"n 	c #917D0E",
"o 	c #9F8A15",
"p 	c #9D8813",
"q 	c #A68F1A",
"r 	c #AB931A",
"s 	c #80700F",
"t 	c #927F16",
"u 	c #A38D14",
"v 	c #A89012",
"w 	c #B59B17",
"x 	c #74620C",
"y 	c #8F7A0C",
"z 	c #86720A",
"A 	c #847209",
"B 	c #393203",
"C 	c #625409",
"D 	c #88740B",
"E 	c #98800D",
"F 	c #A99116",
"G 	c #8A7611",
"H 	c #B2991E",
"I 	c #6B5B09",
"J 	c #9E850F",
"K 	c #9D870F",
"L 	c #7A6909",
"M 	c #83700B",
"N 	c #87750B",
"O 	c #957E0F",
"P 	c #937F19",
"Q 	c #A68F1E",
"R 	c #A89325",
"S 	c #958115",
"T 	c #8E7A12",
"U 	c #9B8715",
"V 	c #948013",
"W 	c #A08B15",
"X 	c #A89118",
"Y 	c #756517",
"Z 	c #B59F2B",
"` 	c #A3902A",
" .	c #A48F23",
"..	c #AD9924",
"+.	c #7B6B17",
"@.	c #AF9925",
"#.	c #AC9624",
"$.	c #796917",
"%.	c #BDA73A",
"&.	c #665A18",
"*.	c #635815",
"=.	c #6C6016",
"-.	c #6C5F16",
";.	c #685C14",
">.	c #4F460F",
",.	c #7A6C24",
"'.	c #070600",
").	c #121400",
"!.	c #111500",
"~.	c #0B0F00",
"{.	c #161900",
"].	c #171602",
"^.	c #080C00",
"/.	c #313400",
"(.	c #3E4000",
"_.	c #323600",
":.	c #424300",
"<.	c #444500",
"[.	c #4B4B00",
"}.	c #191B00",
"|.	c #222400",
"1.	c #2B3200",
"2.	c #6A6200",
"3.	c #6A5F00",
"4.	c #7A6A00",
"5.	c #5D5500",
"6.	c #867300",
"7.	c #696000",
"8.	c #464600",
"9.	c #434500",
"0.	c #565600",
"a.	c #3C3C00",
"b.	c #685A00",
"c.	c #7D6B01",
"d.	c #776701",
"e.	c #534803",
"f.	c #776504",
"g.	c #7F6C00",
"h.	c #8C7501",
"i.	c #706800",
"j.	c #564F00",
"k.	c #605C00",
"l.	c #635E00",
"m.	c #796705",
"n.	c #93800D",
"o.	c #937E12",
"p.	c #9A8510",
"q.	c #A58E14",
"r.	c #A58D13",
"s.	c #7A690D",
"t.	c #9F8910",
"u.	c #927D0A",
"v.	c #5D5300",
"w.	c #807200",
"x.	c #736800",
"y.	c #584D00",
"z.	c #988516",
"A.	c #AF9924",
"B.	c #BAA32E",
"C.	c #B59D2B",
"D.	c #9D891D",
"E.	c #7C6C11",
"F.	c #877514",
"G.	c #9F8A21",
"H.	c #AC952C",
"I.	c #B29C2C",
"J.	c #A9941F",
"K.	c #867510",
"L.	c #806E00",
"M.	c #6E6000",
"N.	c #7C6B00",
"O.	c #806C00",
"P.	c #836E00",
"Q.	c #756600",
"R.	c #857204",
"S.	c #897507",
"T.	c #8D7704",
"U.	c #7F6E06",
"V.	c #97820C",
"W.	c #9B850D",
"X.	c #958009",
"Y.	c #817009",
"Z.	c #A68D11",
"`.	c #A78E17",
" +	c #A48E18",
".+	c #AB9414",
"++	c #947E0D",
"@+	c #9A8518",
"#+	c #B59E25",
"$+	c #BEA62D",
"%+	c #BBA532",
"&+	c #B8A333",
"*+	c #BDA331",
"=+	c #C2A92E",
"-+	c #BBA227",
";+	c #A6901E",
">+	c #76670D",
",+	c #89771F",
"'+	c #A7922F",
")+	c #B6A23D",
"!+	c #BAA747",
"~+	c #B9A441",
"{+	c #B09A33",
"]+	c #988423",
"                                                                ",
"                                                                ",
"                                                                ",
"                        . + @ # $ % &                           ",
"                    * = - ;       > , ' ) !                     ",
"                ~ { ]                   ^ / (                   ",
"              _ :                           < [                 ",
"            } |                               1 2               ",
"            3                                   4 5             ",
"          6 7     8 9 0 a b c d e + f g h i       j k           ",
"        l m     n o         p q r s       t u       v           ",
"        w x   4 y         z A B C D           E     F G         ",
"        H   I J           K       L M         N O   P Q         ",
"        R   S T         U V         W           X   Y Z         ",
"        `    .          ..+.        @.          #.$.  %.        ",
"        &.  *.          =.          -.          ;.>.  ,.        ",
"        '.  ).          !.~.        {.          {.    ].        ",
"        ^.  /.(.        _.:.        <.          [.  }.|.        ",
"        1.    2.          3.      4.5.        6.7.  8.9.        ",
"        0.a.  b.c.        b.d.e.f.g.          h.    i.j.        ",
"        k.l.    m.n.o.      p.q.r.s.      t.u.    v.w.          ",
"          x.y.      z.A.B.C.D.E.F.G.H.I.J.K.      L.M.          ",
"            N.                                  O.P.            ",
"            Q.R.                              S.T.              ",
"              U.V.                          W.X.                ",
"                Y.Z.`.                   +.+++                  ",
"                    @+#+$+%+&+    *+=+-+;+>+                    ",
"                        ,+'+)+!+~+{+]+                          ",
"                                                                ",
"                                                                ",
"                                                                ",
"                                                                "};
